<svg xmlns="http://www.w3.org/2000/svg" xmlns:xlink="http://www.w3.org/1999/xlink" width="151" height="151" viewBox="0 0 151 151"><defs><linearGradient id="a" x1="0.5" x2="0.5" y2="1" gradientUnits="objectBoundingBox"><stop offset="0" stop-color="#00d46a"/><stop offset="1" stop-color="#8effa1"/></linearGradient></defs><g transform="translate(-760 -383)"><path d="M-6124.5,154a75.029,75.029,0,0,1-29.388-5.933,75.5,75.5,0,0,1-12.824-6.961,76.017,76.017,0,0,1-11.174-9.219,76.048,76.048,0,0,1-9.22-11.174,75.534,75.534,0,0,1-6.961-12.825A75.025,75.025,0,0,1-6200,78.5a75.025,75.025,0,0,1,5.933-29.388,75.533,75.533,0,0,1,6.961-12.825,76.048,76.048,0,0,1,9.22-11.174,76.017,76.017,0,0,1,11.174-9.219,75.5,75.5,0,0,1,12.824-6.961A75.029,75.029,0,0,1-6124.5,3a75.029,75.029,0,0,1,29.388,5.933,75.522,75.522,0,0,1,12.825,6.961,76.056,76.056,0,0,1,11.173,9.219,76.023,76.023,0,0,1,9.22,11.174,75.536,75.536,0,0,1,6.961,12.825A75.025,75.025,0,0,1-6049,78.5a75.025,75.025,0,0,1-5.933,29.388,75.536,75.536,0,0,1-6.961,12.825,76.024,76.024,0,0,1-9.22,11.174,76.057,76.057,0,0,1-11.173,9.219,75.522,75.522,0,0,1-12.825,6.961A75.029,75.029,0,0,1-6124.5,154Zm39.242-57.141a6.229,6.229,0,0,0-1.338.185,4.155,4.155,0,0,0-1.181.5,2.638,2.638,0,0,0-.85.86,2.438,2.438,0,0,0-.322,1.288,3.32,3.32,0,0,0,.4,1.612,4.793,4.793,0,0,0,1.094,1.327,7.654,7.654,0,0,0,1.621,1.055,12.689,12.689,0,0,0,1.962.772,14.418,14.418,0,0,0,2.139.468,15.324,15.324,0,0,0,2.138.157,14.39,14.39,0,0,0,3.994-.557,11.024,11.024,0,0,0,3.408-1.631,8.279,8.279,0,0,0,2.373-2.637,7.119,7.119,0,0,0,.89-3.574,5.773,5.773,0,0,0-.714-2.919,8.1,8.1,0,0,0-1.864-2.2,14.316,14.316,0,0,0-2.617-1.71c-.985-.505-1.978-.995-2.95-1.455-.867-.408-1.724-.829-2.549-1.249a14.573,14.573,0,0,1-2.158-1.338,6.564,6.564,0,0,1-1.5-1.562,3.4,3.4,0,0,1-.566-1.925,3.522,3.522,0,0,1,.4-1.621,4.425,4.425,0,0,1,1.153-1.4,5.854,5.854,0,0,1,1.846-.986,7.723,7.723,0,0,1,2.48-.37,7.465,7.465,0,0,1,1.592.176,4.956,4.956,0,0,1,1.475.566,3.556,3.556,0,0,1,1.1,1.005,2.667,2.667,0,0,1,.459,1.514,4.472,4.472,0,0,1-.119.976,6.378,6.378,0,0,1-.39,1.153l.059.2a6.4,6.4,0,0,0,1.719.254,3.408,3.408,0,0,0,1.484-.333,3.024,3.024,0,0,0,.976-.772,2.848,2.848,0,0,0,.527-.985,3.454,3.454,0,0,0,.157-.977,3.777,3.777,0,0,0-.616-2.11,5.362,5.362,0,0,0-1.66-1.592,8.351,8.351,0,0,0-2.442-1,12.482,12.482,0,0,0-2.958-.341,14.5,14.5,0,0,0-2.491.224,13.756,13.756,0,0,0-2.489.683,12.271,12.271,0,0,0-2.276,1.144,9.051,9.051,0,0,0-1.875,1.592,7.2,7.2,0,0,0-1.279,2.04,6.467,6.467,0,0,0-.468,2.48,6.855,6.855,0,0,0,.361,2.276,6.721,6.721,0,0,0,1,1.855,8.865,8.865,0,0,0,1.484,1.514,16.34,16.34,0,0,0,1.827,1.27c.643.386,1.323.751,2.021,1.085.759.361,1.511.716,2.08.985.75.363,1.488.727,2.256,1.114a11.32,11.32,0,0,1,1.9,1.192,5.635,5.635,0,0,1,1.309,1.425,3.376,3.376,0,0,1,.487,1.816,3.556,3.556,0,0,1-.459,1.8,4.243,4.243,0,0,1-1.22,1.347,5.821,5.821,0,0,1-1.758.84,7.359,7.359,0,0,1-2.069.293,8.451,8.451,0,0,1-2.315-.331,6.876,6.876,0,0,1-2.119-1.016,5.912,5.912,0,0,1-1.61-1.758A5.909,5.909,0,0,1-6085.1,97ZM-6098.6,75.766a11.733,11.733,0,0,0-4.044.692,12.864,12.864,0,0,0-3.467,1.914,15.187,15.187,0,0,0-2.812,2.872,19.257,19.257,0,0,0-2.11,3.554,19.663,19.663,0,0,0-1.318,3.965,19.4,19.4,0,0,0-.45,4.112,15.145,15.145,0,0,0,.3,3.017,14,14,0,0,0,.9,2.851,12.3,12.3,0,0,0,1.484,2.521,9.969,9.969,0,0,0,2.061,2.012,9.6,9.6,0,0,0,2.617,1.327,10.072,10.072,0,0,0,3.165.479,11.553,11.553,0,0,0,5.819-1.523,13.076,13.076,0,0,0,4.552-4.59l.039-.078a.151.151,0,0,0,.021-.1.4.4,0,0,0-.119-.254,2.647,2.647,0,0,0-.272-.274,2.224,2.224,0,0,0-.342-.244c-.13-.076-.229-.13-.3-.166a11.555,11.555,0,0,1-3.546,3,7.933,7.933,0,0,1-3.6.927,6.6,6.6,0,0,1-3.164-.8,8.154,8.154,0,0,1-2.6-2.256,11.5,11.5,0,0,1-1.766-3.517,15.1,15.1,0,0,1-.655-4.579,21.99,21.99,0,0,1,.2-2.88,18.586,18.586,0,0,1,.615-2.882,14.5,14.5,0,0,1,1.074-2.636,9.245,9.245,0,0,1,1.583-2.169,7,7,0,0,1,2.14-1.474,6.674,6.674,0,0,1,2.734-.538,5.159,5.159,0,0,1,1.845.3,3.806,3.806,0,0,1,1.318.82,3.4,3.4,0,0,1,.792,1.192,3.9,3.9,0,0,1,.263,1.435,4.8,4.8,0,0,1-.546,2.188l.078.215a4.23,4.23,0,0,0,.909.283,4.688,4.688,0,0,0,.889.089,3.642,3.642,0,0,0,1.3-.226,2.9,2.9,0,0,0,1.036-.663,3.1,3.1,0,0,0,.683-1.055,3.858,3.858,0,0,0,.244-1.416,4.44,4.44,0,0,0-.576-2.236,5.382,5.382,0,0,0-1.583-1.719,7.762,7.762,0,0,0-2.393-1.1A10.99,10.99,0,0,0-6098.6,75.766Zm-59.512-17.657a22.893,22.893,0,0,0-7.011,1.025,21.082,21.082,0,0,0-5.723,2.823,21.171,21.171,0,0,0-4.444,4.229,25.549,25.549,0,0,0-3.173,5.244,28.238,28.238,0,0,0-1.9,5.879,30.2,30.2,0,0,0-.635,6.114,28.28,28.28,0,0,0,.918,7.568,20.541,20.541,0,0,0,2.49,5.684,16.038,16.038,0,0,0,3.69,4.024,20.02,20.02,0,0,0,4.5,2.588,22.494,22.494,0,0,0,4.912,1.386,30.985,30.985,0,0,0,4.951.411,28.92,28.92,0,0,0,3.417-.2c1.1-.131,2.116-.3,3.019-.5s1.724-.418,2.412-.644a11.725,11.725,0,0,0,1.6-.635,4.4,4.4,0,0,0,.8-.479,1.915,1.915,0,0,0,.5-.576,2.466,2.466,0,0,0,.263-.811,8.919,8.919,0,0,0,.1-1.181c.038-1.176.083-2.359.137-3.517.049-1.052.094-2.1.137-3.213q.036-.934.069-1.758l.025-.64.012-.307c.032-.788.048-1.465.048-2.012a2.792,2.792,0,0,0-.459-1.816,1.923,1.923,0,0,0-1.514-.527c-.155,0-.543.006-1.152.019l-.628.014-1.55.036c-.959.021-1.843.037-2.7.048-.922.013-1.843.02-2.736.02h-1.288c-.176,0-.367-.007-.566-.02l.137,1.914h.109c.269,0,.508,0,.711-.009.219-.006.417-.009.586-.009h.957c.992,0,1.819.029,2.46.087a2.93,2.93,0,0,1,1.5.489,2.1,2.1,0,0,1,.742,1.211,9.8,9.8,0,0,1,.2,2.256v1.758c0,.926-.016,1.862-.048,2.782-.033.942-.1,1.813-.205,2.589a2.819,2.819,0,0,1-.459,1.22,3.165,3.165,0,0,1-1.142,1,7,7,0,0,1-1.973.664,15.343,15.343,0,0,1-2.969.244,17.743,17.743,0,0,1-4.287-.518,14.521,14.521,0,0,1-3.908-1.6,14.527,14.527,0,0,1-3.338-2.754,16.275,16.275,0,0,1-2.608-3.974,23.253,23.253,0,0,1-1.7-5.264,33.322,33.322,0,0,1-.6-6.611,33.614,33.614,0,0,1,.411-5.234,26.874,26.874,0,0,1,1.259-4.951,21.617,21.617,0,0,1,2.14-4.355,15.354,15.354,0,0,1,3.046-3.476,13.537,13.537,0,0,1,3.985-2.306,14.2,14.2,0,0,1,4.96-.829,16.749,16.749,0,0,1,3.085.283,13.087,13.087,0,0,1,2.823.859,11.774,11.774,0,0,1,2.421,1.416,9.213,9.213,0,0,1,1.9,1.954,6.319,6.319,0,0,1,1.036,2.314,12.968,12.968,0,0,1,.292,2.588c0,.19,0,.368-.009.528-.006.177-.018.358-.029.527l1.7.039c.09-1.767.179-3.516.263-5.2.071-1.421.107-2.6.107-3.5a2.043,2.043,0,0,0-.9-1.405,9.748,9.748,0,0,0-2.5-1.436,20.426,20.426,0,0,0-3.818-1.123A24.629,24.629,0,0,0-6158.109,58.109ZM-6120.825,51a5.2,5.2,0,0,0-1,.1,3.421,3.421,0,0,0-.9.3,1.879,1.879,0,0,0-.654.546,1.423,1.423,0,0,0-.274.811c-.1,1.494-.2,3.084-.292,4.727q-.156,2.675-.331,5.693c-.113,1.912-.228,3.956-.352,6.25-.112,2.041-.221,4.136-.333,6.406-.1,1.97-.19,3.922-.292,6.142-.077,1.667-.157,3.456-.244,5.469-.071,1.643-.127,3.118-.167,4.385-.038,1.234-.058,2.21-.058,2.9,0,1.913.029,3.463.087,4.736a15.413,15.413,0,0,0,.411,3.154,3.473,3.473,0,0,0,.937,1.749,2.466,2.466,0,0,0,1.67.537,7.647,7.647,0,0,0,1.943-.3,18.671,18.671,0,0,0,2.295-.79,23.026,23.026,0,0,0,2.238-1.075,12.612,12.612,0,0,0,1.768-1.151l-.372-1.016a13.543,13.543,0,0,1-2.2.79,8.017,8.017,0,0,1-2.021.283,3.2,3.2,0,0,1-.879-.107,1.356,1.356,0,0,1-.644-.419,2.514,2.514,0,0,1-.459-.9,8.336,8.336,0,0,1-.294-1.542c-.072-.642-.123-1.409-.156-2.345-.033-.915-.048-2-.048-3.321,0-2.049.039-4.217.117-6.445.079-2.246.19-4.549.332-6.845.143-2.313.313-4.7.509-7.081s.407-4.788.635-7.158c.229-2.4.473-4.768.722-7.05.239-2.19.491-4.417.771-6.807A5.665,5.665,0,0,0-6120.825,51Zm-15.409,46.856a3.119,3.119,0,0,0-1.153.235,3.3,3.3,0,0,0-1.064.694,3.538,3.538,0,0,0-.781,1.142,3.885,3.885,0,0,0-.3,1.582,3.83,3.83,0,0,0,.206,1.229,3.428,3.428,0,0,0,.586,1.075,2.87,2.87,0,0,0,.937.752,2.717,2.717,0,0,0,1.24.283,2.759,2.759,0,0,0,1.358-.342,3.535,3.535,0,0,0,1.053-.888,4.011,4.011,0,0,0,.674-1.231,4.235,4.235,0,0,0,.235-1.386,3.484,3.484,0,0,0-.215-1.22,2.956,2.956,0,0,0-.6-1,2.94,2.94,0,0,0-.948-.674A2.909,2.909,0,0,0-6136.233,97.855Z" transform="translate(6960 380)" fill="url(#a)"/></g></svg>